<svg xmlns="http://www.w3.org/2000/svg" width="600" height="200">
    <style>
        .text { font-family: -apple-system, BlinkMacSystemFont, "Segoe UI", Helvetica, Arial, sans-serif; }
        .mono { font-family: "SFMono-Regular", Consolas, "Liberation Mono", Menlo, monospace; }
    </style>
    <rect width="600" height="200" rx="10" fill="#0d1117" stroke="#21262d" stroke-width="2"/>

    <text x="30" y="45" fill="#c9d1d9" font-size="22" font-weight="bold" class="text">/ES Futures</text>
    <text x="30" y="65" fill="#8b949e" font-size="12" class="mono">E-mini S&P 500 Matrix</text>

    <text x="30" y="110" fill="#c9d1d9" font-size="32" class="mono">7228.20</text>
    <text x="30" y="135" fill="#8b949e" font-size="14" class="mono">Vol: 1,763,666</text>
    <text x="30" y="160" fill="#FF6B35" font-size="14" class="mono">POC: 7224.14</text>

    <text x="400" y="25" fill="#8b949e" font-size="10" class="mono" text-anchor="start">TPO / VOL PROFILE</text>
    <rect x="400" y="40" width="115" height="6" fill="#30363d" rx="2"/>
<rect x="400" y="48" width="66" height="6" fill="#30363d" rx="2"/>
<rect x="400" y="56" width="108" height="6" fill="#30363d" rx="2"/>
<rect x="400" y="64" width="94" height="6" fill="#30363d" rx="2"/>
<rect x="400" y="72" width="20" height="6" fill="#30363d" rx="2"/>
<rect x="400" y="80" width="101" height="6" fill="#30363d" rx="2"/>
<rect x="400" y="88" width="100" height="6" fill="#30363d" rx="2"/>
<rect x="400" y="96" width="15" height="6" fill="#FF6B35" rx="2"/>
<rect x="400" y="104" width="74" height="6" fill="#30363d" rx="2"/>
<rect x="400" y="112" width="144" height="6" fill="#30363d" rx="2"/>
<rect x="400" y="120" width="98" height="6" fill="#30363d" rx="2"/>
<rect x="400" y="128" width="131" height="6" fill="#30363d" rx="2"/>
<rect x="400" y="136" width="97" height="6" fill="#30363d" rx="2"/>
<rect x="400" y="144" width="18" height="6" fill="#30363d" rx="2"/>
<rect x="400" y="152" width="105" height="6" fill="#30363d" rx="2"/>


    <text x="570" y="185" fill="#484f58" font-size="10" class="mono" text-anchor="end">Last Updated: 2026-06-11 23:40 UTC</text>
</svg>